Coordinates
version=1
nRows=49
nColumns=12
inDegrees=yes

Units are S.I. units (second, meters, Newtons, ...)
Angles are in degrees

endheader
time	SC_y	SC_z	SC_x	AC_y	AC_z	AC_x	GH_y	GH_z	GH_yy	EL_x	PS_y
       0.0              -40.73          2.448          33.69          65.93        -0.4665          1.543         -118.1          2.152          177.0          104.8           36.6
   0.02712              -40.73          2.448          33.69          65.93        -0.4693          1.543         -118.2          2.152          176.9          104.8          36.62
   0.05424              -40.72          2.449          33.68          65.92        -0.4723          1.544         -118.2          2.152          176.9          104.8          36.63
   0.08136              -40.72           2.45          33.68          65.92        -0.4754          1.544         -118.2          2.151          176.9          104.8          36.64
    0.1085              -40.71           2.45          33.68          65.92        -0.4787          1.544         -118.2           2.15          176.8          104.7          36.66
    0.1356              -40.71          2.451          33.68          65.91        -0.4823          1.545         -118.2           2.15          176.8          104.7          36.68
    0.1627               -40.7          2.452          33.67          65.91        -0.4861          1.545         -118.2          2.149          176.7          104.7           36.7
    0.1898               -40.7          2.453          33.67           65.9        -0.4901          1.545         -118.2          2.149          176.6          104.7          36.72
     0.217              -40.69          2.454          33.67          65.89        -0.4945          1.546         -118.2          2.148          176.6          104.7          36.74
    0.2441              -40.69          2.455          33.66          65.89        -0.4992          1.546         -118.2          2.147          176.5          104.7          36.76
    0.2712              -40.68          2.456          33.66          65.88        -0.5042          1.546         -118.2          2.146          176.4          104.7          36.78
    0.2983              -40.67          2.457          33.65          65.87        -0.5096          1.547         -118.2          2.145          176.4          104.6          36.81
    0.3255              -40.66          2.459          33.65          65.87        -0.5154          1.547         -118.3          2.144          176.3          104.6          36.84
    0.3526              -40.66           2.46          33.64          65.86        -0.5217          1.548         -118.3          2.143          176.2          104.6          36.87
    0.3797              -40.65          2.462          33.64          65.85        -0.5285          1.548         -118.3          2.142          176.1          104.6           36.9
    0.4068              -40.64          2.463          33.63          65.84        -0.5359          1.549         -118.3          2.141          176.0          104.6          36.94
    0.4339              -40.62          2.465          33.63          65.83        -0.5439           1.55         -118.3           2.14          175.9          104.5          36.97
    0.4611              -40.61          2.467          33.62          65.82        -0.5526          1.551         -118.3          2.138          175.8          104.5          37.02
    0.4882               -40.6          2.469          33.61           65.8        -0.5621          1.551         -118.4          2.137          175.6          104.5          37.06
    0.5153              -40.59          2.472           33.6          65.79        -0.5726          1.552         -118.4          2.135          175.5          104.4          37.11
    0.5424              -40.57          2.474          33.59          65.77         -0.584          1.553         -118.4          2.133          175.3          104.4          37.17
    0.5695              -40.55          2.477          33.58          65.76        -0.5966          1.554         -118.4          2.131          175.1          104.4          37.23
    0.5967              -40.53           2.48          33.57          65.74        -0.6106          1.555         -118.5          2.129          174.9          104.3           37.3
    0.6238              -40.51          2.484          33.56          65.72         -0.626          1.557         -118.5          2.126          174.7          104.3          37.37
    0.6509              -40.49          2.488          33.55          65.69        -0.6432          1.558         -118.5          2.123          174.5          104.2          37.45
     0.678              -40.46          2.492          33.53          65.67        -0.6623           1.56         -118.6           2.12          174.2          104.2          37.55
    0.7052              -40.43          2.497          33.51          65.64        -0.6838          1.562         -118.6          2.116          173.9          104.1          37.65
    0.7323               -40.4          2.503          33.49          65.61        -0.7079          1.564         -118.7          2.112          173.5          104.0          37.76
    0.7594              -40.36          2.509          33.47          65.57        -0.7352          1.566         -118.8          2.108          173.1          103.9           37.9
    0.7865              -40.32          2.516          33.45          65.53        -0.7661          1.568         -118.8          2.103          172.7          103.8          38.05
    0.8136              -40.27          2.524          33.42          65.48        -0.8015          1.571         -118.9          2.097          172.2          103.7          38.22
    0.8408              -40.22          2.533          33.39          65.42         -0.842          1.575         -119.0           2.09          171.6          103.6          38.41
    0.8679              -40.15          2.544          33.35          65.36        -0.8888          1.579         -119.1          2.082          170.9          103.4          38.64
     0.895              -40.08          2.556           33.3          65.29        -0.9433          1.583         -119.2          2.073          170.2          103.2           38.9
    0.9221              -39.99          2.571          33.25           65.2         -1.007          1.589         -119.4          2.063          169.3          103.0          39.21
    0.9492              -39.89          2.588          33.19           65.1         -1.082          1.595         -119.5           2.05          168.2          102.8          39.57
    0.9764              -39.77          2.608          33.12          64.98         -1.171          1.603         -119.7          2.036          166.9          102.5           40.0
     1.003              -39.62          2.633          33.03          64.83         -1.278          1.612         -120.0          2.018          165.4          102.2          40.51
     1.031              -39.45          2.662          32.93          64.66         -1.407          1.622         -120.3          1.996          163.5          101.7          41.13
     1.058              -39.23          2.698           32.8          64.44         -1.565          1.636         -120.6           1.97          161.3          101.2           41.9
     1.085              -38.96          2.743          32.64          64.18          -1.76          1.652         -121.1          1.938          158.5          100.6          42.84
     1.112              -38.63          2.798          32.45          63.85         -2.003          1.673         -121.6          1.898          155.0          99.81          44.01
     1.139              -38.22          2.868           32.2          63.44          -2.31          1.698         -122.3          1.847          150.6          98.82          45.48
     1.166              -37.68          2.957          31.88          62.91         -2.699          1.731         -123.2          1.782          145.0          97.55          47.36
     1.193               -37.0          3.071          31.48          62.23         -3.197          1.773         -124.4            1.7          137.9          95.94          49.76
      1.22              -36.13          3.217          30.96          61.37         -3.837          1.827         -125.8          1.594          128.8          93.87          52.84
     1.248              -35.02          3.404           30.3          60.26         -4.654          1.896         -127.7          1.458          117.1          91.22          56.78
     1.275              -33.61          3.638          29.47          58.87         -5.681          1.982         -130.0          1.288          102.4           87.9          61.73
     1.302              -31.91          3.924          28.46          57.18         -6.933          2.088         -132.8           1.08          84.47          83.84          67.76
